<svg width="24" height="24" viewBox="0 0 24 24" fill="none" xmlns="http://www.w3.org/2000/svg">
<path d="M13.5 11C12.9477 11 12.5 11.4477 12.5 12V19.4617C12.5 20.0143 13.0388 20.4187 13.4502 20.0498C15.1334 18.5332 16.525 17.225 17.625 16.125C18.725 15.025 19.6 14.0371 20.25 13.1621C20.4662 12.8711 20.6607 12.5878 20.8336 12.3125C21.2104 11.7121 20.7444 11 20.0357 11H13.5ZM3.96438 11C3.25559 11 2.78966 11.7122 3.16646 12.3125C3.3393 12.5879 3.53381 12.8711 3.75 13.1621C4.4 14.0371 5.275 15.025 6.375 16.125C7.47496 17.225 8.86657 18.5332 10.5498 20.0498C10.9612 20.4187 11.5 20.0143 11.5 19.4617V12C11.5 11.4477 11.0523 11 10.5 11H3.96438ZM7.5 3C5.93333 3 4.6252 3.5252 3.5752 4.5752C2.5252 5.6252 2 6.93333 2 8.5C2 8.74005 2.01293 8.97841 2.03853 9.21513C2.08865 9.6785 2.50124 10 2.96731 10H10.5C11.0523 10 11.5 9.55228 11.5 9V4.87113C11.5 4.63275 11.3437 4.42974 11.1572 4.28125C10.7952 3.99305 10.4007 3.74925 9.97461 3.5498C9.1914 3.18326 8.36652 3 7.5 3ZM16.5 3C15.6334 3 14.8086 3.18326 14.0254 3.5498C13.5993 3.74925 13.2048 3.99305 12.8428 4.28125C12.6563 4.42974 12.5 4.63275 12.5 4.87113V9C12.5 9.55228 12.9477 10 13.5 10H21.0327C21.4988 10 21.9114 9.6785 21.9615 9.21513C21.9871 8.97841 22 8.74005 22 8.5C22 6.93333 21.4748 5.62519 20.4248 4.5752C19.3748 3.5252 18.0667 3 16.5 3Z" fill="white"/>
<path d="M13.65 11.9404C13.0425 11.9404 12.55 12.4329 12.55 13.0404V21.2483C12.55 21.8561 13.1427 22.3009 13.5952 21.8952C15.4467 20.2269 16.9775 18.7879 18.1875 17.5779C19.3975 16.3679 20.36 15.2812 21.075 14.3187C21.3128 13.9986 21.5268 13.687 21.7169 13.3841C22.1314 12.7238 21.6189 11.9404 20.8392 11.9404H13.65ZM3.16081 11.9404C2.38115 11.9404 1.86863 12.7238 2.28311 13.3841C2.47323 13.6871 2.68719 13.9986 2.925 14.3187C3.64 15.2812 4.6025 16.3679 5.8125 17.5779C7.02245 18.7879 8.55322 20.2269 10.4048 21.8952C10.8573 22.3009 11.45 21.8561 11.45 21.2483V13.0404C11.45 12.4329 10.9575 11.9404 10.35 11.9404H3.16081ZM7.05 3.14041C5.32666 3.14041 3.88771 3.71813 2.73271 4.87313C1.57771 6.02813 1 7.46707 1 9.19041C1 9.45447 1.01422 9.71666 1.04238 9.97705C1.09751 10.4868 1.55137 10.8404 2.06404 10.8404H10.35C10.9575 10.8404 11.45 10.3479 11.45 9.74041V5.19866C11.45 4.93644 11.2781 4.71313 11.0729 4.54979C10.6748 4.23277 10.2407 3.96458 9.77207 3.7452C8.91054 3.342 8.00318 3.14041 7.05 3.14041ZM16.95 3.14041C15.9968 3.14041 15.0894 3.342 14.2279 3.7452C13.7593 3.96458 13.3252 4.23277 12.9271 4.54979C12.7219 4.71313 12.55 4.93644 12.55 5.19866V9.74041C12.55 10.3479 13.0425 10.8404 13.65 10.8404H21.936C22.4486 10.8404 22.9025 10.4868 22.9576 9.97706C22.9858 9.71666 23 9.45447 23 9.19041C23 7.46708 22.4223 6.02813 21.2673 4.87313C20.1123 3.71813 18.6734 3.14041 16.95 3.14041Z" fill="url(#paint0_radial_312_7930)"/>
<defs>
<radialGradient id="paint0_radial_312_7930" cx="0" cy="0" r="1" gradientUnits="userSpaceOnUse" gradientTransform="translate(12 12.9862) rotate(90) scale(9.84575 11)">
<stop stop-color="#F42572"/>
<stop offset="1" stop-color="#F42572" stop-opacity="0.6"/>
</radialGradient>
</defs>
</svg>
