<svg width="24" height="24" viewBox="0 0 24 24" fill="none" xmlns="http://www.w3.org/2000/svg">
<path d="M13.8 11.6C13.1373 11.6 12.6 12.1373 12.6 12.8V21.754C12.6 22.4171 13.2465 22.9024 13.7402 22.4598C15.7601 20.6398 17.4301 19.0699 18.75 17.75C20.07 16.43 21.12 15.2445 21.9 14.1945C22.1594 13.8453 22.3929 13.5054 22.6003 13.175C23.0524 12.4546 22.4933 11.6 21.6428 11.6H13.8ZM2.35725 11.6C1.50671 11.6 0.947593 12.4546 1.39975 13.175C1.60716 13.5054 1.84057 13.8453 2.1 14.1945C2.88 15.2445 3.93 16.43 5.25 17.75C6.56995 19.0699 8.23988 20.6398 10.2598 22.4598C10.7535 22.9024 11.4 22.4171 11.4 21.754V12.8C11.4 12.1373 10.8627 11.6 10.2 11.6H2.35725ZM6.6 2C4.72 2 3.15023 2.63023 1.89023 3.89023C0.630234 5.15023 -9.53674e-07 6.72 -9.53674e-07 8.6C-9.26004e-07 8.88806 0.0155106 9.17409 0.0462355 9.45816C0.106377 10.0142 0.601491 10.4 1.16077 10.4H10.2C10.8627 10.4 11.4 9.86274 11.4 9.2V4.24536C11.4 3.9593 11.2125 3.71569 10.9887 3.5375C10.5543 3.19166 10.0808 2.8991 9.56953 2.65977C8.62968 2.21991 7.63983 2 6.6 2ZM17.4 2C16.3601 2 15.3703 2.21991 14.4305 2.65977C13.9192 2.8991 13.4457 3.19166 13.0113 3.5375C12.7875 3.71569 12.6 3.9593 12.6 4.24536V9.2C12.6 9.86274 13.1373 10.4 13.8 10.4H22.8392C23.3985 10.4 23.8936 10.0142 23.9538 9.45816C23.9845 9.17409 24 8.88806 24 8.6C24 6.72 23.3698 5.15023 22.1098 3.89023C20.8498 2.63024 19.28 2 17.4 2Z" fill="white"/>
<path d="M13.8 11.6C13.1373 11.6 12.6 12.1373 12.6 12.8V21.754C12.6 22.4171 13.2465 22.9024 13.7402 22.4598C15.7601 20.6398 17.4301 19.0699 18.75 17.75C20.07 16.43 21.12 15.2445 21.9 14.1945C22.1594 13.8453 22.3929 13.5054 22.6003 13.175C23.0524 12.4546 22.4933 11.6 21.6428 11.6H13.8ZM2.35725 11.6C1.50671 11.6 0.947593 12.4546 1.39975 13.175C1.60716 13.5054 1.84057 13.8453 2.1 14.1945C2.88 15.2445 3.93 16.43 5.25 17.75C6.56995 19.0699 8.23988 20.6398 10.2598 22.4598C10.7535 22.9024 11.4 22.4171 11.4 21.754V12.8C11.4 12.1373 10.8627 11.6 10.2 11.6H2.35725ZM6.6 2C4.72 2 3.15023 2.63023 1.89023 3.89023C0.630234 5.15023 -9.53674e-07 6.72 -9.53674e-07 8.6C-9.26004e-07 8.88806 0.0155106 9.17409 0.0462355 9.45816C0.106377 10.0142 0.601491 10.4 1.16077 10.4H10.2C10.8627 10.4 11.4 9.86274 11.4 9.2V4.24536C11.4 3.9593 11.2125 3.71569 10.9887 3.5375C10.5543 3.19166 10.0808 2.8991 9.56953 2.65977C8.62968 2.21991 7.63983 2 6.6 2ZM17.4 2C16.3601 2 15.3703 2.21991 14.4305 2.65977C13.9192 2.8991 13.4457 3.19166 13.0113 3.5375C12.7875 3.71569 12.6 3.9593 12.6 4.24536V9.2C12.6 9.86274 13.1373 10.4 13.8 10.4H22.8392C23.3985 10.4 23.8936 10.0142 23.9538 9.45816C23.9845 9.17409 24 8.88806 24 8.6C24 6.72 23.3698 5.15023 22.1098 3.89023C20.8498 2.63024 19.28 2 17.4 2Z" fill="url(#paint0_radial_312_7930)"/>
<defs>
<radialGradient id="paint0_radial_312_7930" cx="0" cy="0" r="1" gradientUnits="userSpaceOnUse" gradientTransform="translate(12 12.7408) rotate(90) scale(10.7408 12)">
<stop stop-color="#F42572"/>
<stop offset="1" stop-color="#F42572" stop-opacity="0.6"/>
</radialGradient>
</defs>
</svg>
