<svg width="48" height="48" viewBox="0 0 48 48" fill="none" xmlns="http://www.w3.org/2000/svg">
<rect width="48" height="48" fill="#F9FAFB"/>
<path d="M13.5 37.5C12.675 37.5 11.9688 37.2063 11.3813 36.6188C10.7937 36.0313 10.5 35.325 10.5 34.5V13.5C10.5 12.675 10.7937 11.9688 11.3813 11.3813C11.9688 10.7937 12.675 10.5 13.5 10.5H34.5C35.325 10.5 36.0313 10.7937 36.6188 11.3813C37.2063 11.9688 37.5 12.675 37.5 13.5V34.5C37.5 35.325 37.2063 36.0313 36.6188 36.6188C36.0313 37.2063 35.325 37.5 34.5 37.5H13.5ZM13.5 34.5H34.5V13.5H13.5V34.5ZM15 31.5H33L27.375 24L22.875 30L19.5 25.5L15 31.5Z" fill="#767A81"/>
</svg>
