<svg width="48" height="48" viewBox="0 0 48 48" fill="none" xmlns="http://www.w3.org/2000/svg">
<rect width="48" height="48" fill="#F9FAFB"/>
<path d="M17.925 37.5C15.875 37.5 14.125 36.775 12.675 35.325C11.225 33.875 10.5 32.125 10.5 30.075C10.5 29.075 10.6875 28.125 11.0625 27.225C11.4375 26.325 11.975 25.525 12.675 24.825L17.7 19.8375L19.8 21.9375L14.775 26.9625C14.35 27.3875 14.0313 27.8688 13.8188 28.4063C13.6063 28.9438 13.5 29.5 13.5 30.075C13.5 31.3 13.9313 32.3438 14.7938 33.2063C15.6563 34.0688 16.7 34.5 17.925 34.5C18.5 34.5 19.0625 34.3938 19.6125 34.1813C20.1625 33.9688 20.65 33.65 21.075 33.225L26.0625 28.2L28.2 30.3375L23.175 35.325C22.475 36.025 21.675 36.5625 20.775 36.9375C19.875 37.3125 18.925 37.5 17.925 37.5ZM20.8875 29.25L18.75 27.1125L27.1125 18.75L29.25 20.8875L20.8875 29.25ZM30.3 28.2L28.2 26.0625L33.225 21.075C33.65 20.65 33.9625 20.175 34.1625 19.65C34.3625 19.125 34.4625 18.575 34.4625 18C34.4625 16.75 34.0375 15.6875 33.1875 14.8125C32.3375 13.9375 31.2875 13.5 30.0375 13.5C29.4625 13.5 28.9063 13.6063 28.3688 13.8188C27.8313 14.0313 27.35 14.35 26.925 14.775L21.9375 19.8L19.8 17.7L24.825 12.675C25.525 11.975 26.325 11.4375 27.225 11.0625C28.125 10.6875 29.075 10.5 30.075 10.5C32.125 10.5 33.8688 11.225 35.3063 12.675C36.7438 14.125 37.4625 15.8875 37.4625 17.9625C37.4625 18.9375 37.2813 19.875 36.9188 20.775C36.5563 21.675 36.025 22.475 35.325 23.175L30.3 28.2Z" fill="#767A81"/>
</svg>
